PathFileType	4	(X/Y/Z)	pose2sim_0-719.trc
DataRate	CameraRate	NumFrames	NumMarkers	Units	OrigDataRate	OrigDataStartFrame	OrigNumFrames
50	50	5	22	m	50	450	720
Frame#	Time	Hip			RHip			RKnee			RAnkle			RBigToe			RSmallToe			RHeel			LHip			LKnee			LAnkle			LBigToe			LSmallToe			LHeel			Neck			Head			Nose			RShoulder			RElbow			RWrist			LShoulder			LElbow			LWrist			
		X1	Y1	Z1	X2	Y2	Z2	X3	Y3	Z3	X4	Y4	Z4	X5	Y5	Z5	X6	Y6	Z6	X7	Y7	Z7	X8	Y8	Z8	X9	Y9	Z9	X10	Y10	Z10	X11	Y11	Z11	X12	Y12	Z12	X13	Y13	Z13	X14	Y14	Z14	X15	Y15	Z15	X16	Y16	Z16	X17	Y17	Z17	X18	Y18	Z18	X19	Y19	Z19	X20	Y20	Z20	X21	Y21	Z21	X22	Y22	Z22	
450	9.0	0.13073094745392805	0.8010119535856043	-0.11261779200970747	0.03079392669900222	0.7875325717411255	-0.11597559152849993	0.006655283799491408	0.4246721025374545	-0.13279667484759003	0.000811633669954801	0.07310598709225351	-0.1538941741958104	-0.02740256304128214	0.026139493891082125	-0.025364186098762224	-0.06391066891774655	0.025781738762422436	-0.07103710931497006	0.01530191795618935	0.03569592339569636	-0.18373576668802313	0.2317740218546876	0.7844114552495361	-0.11431393870310179	0.25961971843086296	0.42614521306390546	-0.1333964424999855	0.26270805232899397	0.0711962645971124	-0.14624127793918157	0.27439788792789205	0.024864566327797516	-0.004187076987943962	0.3165558670429341	0.028778067594719806	-0.04178119446048543	0.25426089237944555	0.03273861893723998	-0.17576783661087012	0.13766894258243345	1.3602939443835635	-0.10782738585460683	0.13167818844392207	1.5750715107582403	-0.07128388623229874	0.12251278782234692	1.4510330668347233	0.028821087415984395	-0.01669080685117287	1.2732649854767326	-0.1301082369499412	-0.0882206925509979	1.0685303750892814	-0.0012454453343095377	-0.1306905437918934	1.129913437589205	0.24560393636807593	0.2924575759169483	1.2656710038848349	-0.12333940584835656	0.3441943660080886	1.0564661685745866	-0.019032517204355632	0.3823043196348669	1.1143598335896492	0.2498318868004586
451	9.02	0.12922995040614732	0.8008234289949403	-0.11519564930622711	0.029327432379815027	0.7865118461277415	-0.11755303889784802	0.006278896774471714	0.422280189029778	-0.13339140786786352	-0.0002888015328185578	0.07357898798180006	-0.1533433827879752	-0.019045966328419706	0.02752602520386807	-0.02091775325717551	-0.05952995459979074	0.02724251557734869	-0.06482566336732769	0.01506099456241941	0.037378729772975204	-0.18641423573515598	0.23400188521925974	0.7829313030329909	-0.11440014552877793	0.2580058197949448	0.42508525631669936	-0.13454641141710377	0.2640264597912912	0.07162113927319907	-0.1452179535192403	0.27384321946243795	0.02370469733694756	-0.0012400830338738192	0.31848403858702545	0.027347460825864298	-0.04254905179163579	0.2516863414183134	0.03329556703233365	-0.17683262656755036	0.13747296320012795	1.3601413775724662	-0.10189101640163864	0.13402568162699055	1.5767553670041627	-0.07098846149093205	0.12277497455035503	1.4529860459058166	0.03446332226095308	-0.021633793125170726	1.2731399421786365	-0.12511834995493815	-0.08751690080395744	1.064388487897918	0.0075078100159753835	-0.12425124005293654	1.1508768114431724	0.24579241533419505	0.2911002630713645	1.2667130459560119	-0.12462092640181903	0.3496384643819759	1.0544450088088313	-0.017591275583244564	0.37592476244111905	1.1327941068862006	0.24205999740665082
452	9.04	0.13180154476038808	0.8066356826411502	-0.11561282692647694	0.03256178773424442	0.7933083372348296	-0.11053031578699143	0.00807945145286206	0.4268455110548009	-0.13938755148148688	0.0010913913509965896	0.07115784264667596	-0.15413184569071806	-0.03146207055872975	0.029482661553396888	0.006857946356219253	-0.0645499795533669	0.028922934533949278	-0.04664995577984336	0.015158372411795894	0.02712642596220717	-0.19500194308057184	0.23083538166593165	0.7905421561458991	-0.10914331638112833	0.25553773068714514	0.4277191751295425	-0.13095640976753184	0.2650418570696593	0.06959066677641311	-0.1486331827502616	0.2799711132178275	0.024547828802584493	0.023836897853428938	0.3129879479542127	0.022831172771789823	-0.023928618536744033	0.2543080930067187	0.03221155233868297	-0.1811182961941412	0.1358235920367828	1.3635697467812988	-0.10602114342004743	0.13431836422921373	1.5757545325578337	-0.06177301405636941	0.11983598145605448	1.4554628594432892	0.02706140378446616	-0.026050826605714634	1.27264977025817	-0.12565288519180337	-0.08217973677714698	1.0624674647624182	0.01971089826636311	-0.11767001694426178	1.1676745182731998	0.254434698915593	0.29075417781615437	1.2688109948733466	-0.12218606032092963	0.34358167968802467	1.0578325675253382	0.010071662167453893	0.3774242166136448	1.1445266252004458	0.23669870945065272
453	9.06	0.13104959848149542	0.8027168499046107	-0.11985032333866379	0.03214178282959543	0.7893161763458971	-0.11798290329786079	0.007653105559534888	0.42517254046768554	-0.13672388717694917	0.0006711944053454582	0.07265625116211706	-0.15293417832425132	-0.019667923077430066	0.02663267311499276	-0.01731772871431566	-0.056521954986392765	0.02723672479269866	-0.06036775401209902	0.015049821474688472	0.036397917468726525	-0.1842437442527804	0.23227030355925626	0.7858712777623158	-0.11636606509013166	0.2590023606339188	0.4251371192528841	-0.13266762808727428	0.26230353793485933	0.07204400839288051	-0.14580966685259908	0.27328597871445154	0.022489818406243978	0.0026420818454840128	0.31821009494173697	0.026437619171881647	-0.038754016275090605	0.25393530311506524	0.034651610864621776	-0.1767395607885456	0.13665231893328017	1.3590909236855417	-0.1060334670370318	0.1343282809701639	1.574078583234987	-0.06606985255018541	0.12497660947763482	1.4533628441603463	0.039785396742620334	-0.020548045975852292	1.2764853729866688	-0.12712368162773305	-0.08492780291596014	1.0692612504546164	0.02804014461155464	-0.11505424150528987	1.1794353306541214	0.22356223656841148	0.29100397085103086	1.2678481253081078	-0.12968433530993295	0.3448195490313027	1.0603767566709312	0.0030927839386228105	0.36208370079480723	1.1747990265063406	0.25976730084135047
454	9.08	0.1306462174299269	0.8053392749357537	-0.11526086604915653	0.03211060296641037	0.7881157613245547	-0.11694806786477221	0.007557609447778198	0.42427091745263923	-0.13715482873267934	-0.0002795578767728154	0.07297671121567287	-0.1542729864801164	-0.019361105921224	0.029001025171743185	-0.018738658790695466	-0.05831656200328796	0.03035446884345323	-0.06539443292819182	0.013899971826540965	0.0368622265277335	-0.1892663257679391	0.23149508561038112	0.7872598769898267	-0.11024145010777399	0.2595502496772366	0.4262184209736827	-0.13260473400463074	0.26382304007282453	0.07462947344844455	-0.14485518061085692	0.2709542876200391	0.025263691452743986	0.00027303893627483487	0.317843532897498	0.027919027461460227	-0.04252161730051464	0.25403874540296506	0.03735523709037842	-0.17358369978767324	0.13762869414996096	1.3596159575908207	-0.10500844138129739	0.13405329454369103	1.5748632002829472	-0.0681918931768628	0.12621964628033	1.452133805185922	0.04578325294276163	-0.018932007165386993	1.2792281215177577	-0.12683136967392966	-0.08291964562240083	1.0737385838042448	0.037219873671181666	-0.11057642665177836	1.2017891878198443	0.22608878125089096	0.29020570958282277	1.2708350012412013	-0.1296082557769557	0.3436622683809937	1.0628067307884732	0.010155458563602174	0.3590439888120451	1.1920241970265626	0.26048474802058047
